<svg xmlns="http://www.w3.org/2000/svg" width="204.896" height="242" viewBox="0 0 204.896 242">
  <g id="Group_13082" data-name="Group 13082" transform="translate(18245.41 -13847.566)">
    <g id="_02_Elements_04_Icons_message" data-name="#02 Elements/#04 Icons/message" transform="translate(-18223.168 13847.566)">
      <g id="message">
        <g id="Path" transform="translate(0.42 0.445)">
          <path id="Path-2" data-name="Path" d="M58.734,27.332V56.918a4.939,4.939,0,0,1-4.939,4.939H4.939A4.939,4.939,0,0,1,0,56.918V27.332a4.078,4.078,0,0,1,1.26-2.927L25,1.75a6.327,6.327,0,0,1,8.736,0L57.482,24.416a4.055,4.055,0,0,1,1.26,2.927Z" fill="#f96"/>
          <path id="Path-3" data-name="Path" d="M58.734,27.332V56.918a4.939,4.939,0,0,1-4.939,4.939H4.939A4.939,4.939,0,0,1,0,56.918V27.332a4.078,4.078,0,0,1,1.26-2.927L25,1.75a6.327,6.327,0,0,1,8.736,0L57.482,24.416a4.055,4.055,0,0,1,1.26,2.927Z" fill="rgba(255,255,255,0.09)"/>
        </g>
        <path id="Shape" d="M5.359,62.722A5.359,5.359,0,0,1,0,57.363V27.778a4.492,4.492,0,0,1,1.382-3.23L25.129,1.869a6.737,6.737,0,0,1,9.315,0L58.192,24.548a4.477,4.477,0,0,1,1.382,3.23V57.363a5.363,5.363,0,0,1-5.359,5.359Z" fill="#372168"/>
        <path id="Path-4" data-name="Path" d="M0,6.13V2.209A2.207,2.207,0,0,1,2.209,0h39.14A2.209,2.209,0,0,1,43.56,2.209V23.122l-1.172.787L28.922,32.987a12.767,12.767,0,0,1-14.262,0L1.182,23.911.008,23.12V9.181" transform="translate(8.005 8.035)" fill="#fff"/>
        <path id="Path-5" data-name="Path" d="M22.2,36.017a13.156,13.156,0,0,1-7.366-2.262L.185,23.886A.42.42,0,0,1,0,23.538V9.6a.42.42,0,1,1,.84,0V23.315l14.466,9.741a12.293,12.293,0,0,0,13.792,0L43.56,23.317V2.629A1.793,1.793,0,0,0,41.769.84H2.629A1.791,1.791,0,0,0,.84,2.629V6.55a.42.42,0,0,1-.84,0V2.629A2.631,2.631,0,0,1,2.629,0h39.14A2.631,2.631,0,0,1,44.4,2.629V23.542a.42.42,0,0,1-.187.349L29.569,33.76A13.164,13.164,0,0,1,22.2,36.017Z" transform="translate(7.585 7.615)" fill="#372168"/>
        <path id="Path-6" data-name="Path" d="M29.482,17.8a13.156,13.156,0,0,1-7.366-2.262L.18.765a.42.42,0,0,1,.468-.7L22.586,14.84a12.293,12.293,0,0,0,13.792,0L58.315.067a.42.42,0,0,1,.468.7L36.848,15.537A13.164,13.164,0,0,1,29.482,17.8Z" transform="translate(0.305 25.833)" fill="#372168"/>
        <g id="Path-7" data-name="Path" transform="translate(2.396 35.279)">
          <path id="Path-8" data-name="Path" d="M15.029,10.631l1.831-1.89,7.125-7.3a4.752,4.752,0,0,1,6.8-.017l.017.017,7.121,7.3,16.86,17.286a4.912,4.912,0,0,1-2.959.985H2.963A4.916,4.916,0,0,1,0,26.026l8.355-8.593L11.2,14.544" transform="translate(0 0)" fill="#ccc4f7"/>
          <path id="Path-9" data-name="Path" d="M15.029,10.631l1.831-1.89,7.125-7.3a4.752,4.752,0,0,1,6.8-.017l.017.017,7.121,7.3,16.86,17.286a4.912,4.912,0,0,1-2.959.985H2.963A4.916,4.916,0,0,1,0,26.026l8.355-8.593L11.2,14.544" transform="translate(0 0)" fill="rgba(255,255,255,0.09)"/>
        </g>
        <path id="Path-10" data-name="Path" d="M52.24,27.859H3.384A5.309,5.309,0,0,1,.169,26.788a.42.42,0,0,1-.05-.63l8.355-8.593,2.852-2.894a.42.42,0,1,1,.6.59l-2.85,2.887-8,8.229a4.487,4.487,0,0,0,2.31.63H52.238a4.462,4.462,0,0,0,2.31-.63L30.908,2.138A4.307,4.307,0,0,0,27.814.84H27.8a4.3,4.3,0,0,0-3.093,1.308l-8.956,9.183a.42.42,0,1,1-.6-.586l8.956-9.183A5.128,5.128,0,0,1,27.8,0h.015A5.134,5.134,0,0,1,31.5,1.546l.013.013L55.5,26.152a.42.42,0,0,1-.048.63,5.313,5.313,0,0,1-3.213,1.077Z" transform="translate(1.975 34.863)" fill="#372168"/>
        <path id="Path-11" data-name="Path" d="M1.384,1.594a.21.21,0,0,1-.21-.21A.966.966,0,0,0,.21.42.21.21,0,1,1,.21,0,1.386,1.386,0,0,1,1.594,1.384.21.21,0,0,1,1.384,1.594Z" transform="translate(48.291 9.878)" fill="#372168"/>
        <path id="Path-12" data-name="Path" d="M.207,1.2a.21.21,0,0,1-.145-.059.21.21,0,0,1,0-.3A2.73,2.73,0,0,1,2.021,0h0A2.73,2.73,0,0,1,3.981.821a.209.209,0,1,1-.292.3A2.32,2.32,0,0,0,2.009.416h0a2.31,2.31,0,0,0-1.659.7A.21.21,0,0,1,.207,1.2Z" transform="translate(27.745 38.101)" fill="#372168"/>
        <path id="Path-13" data-name="Path" d="M2.016,1.807a.21.21,0,0,1-.128-.044L.082.377A.21.21,0,0,1,.339.043L2.144,1.429a.212.212,0,0,1-.128.378Z" transform="translate(27.771 50.518)" fill="#372168"/>
        <path id="Path-14" data-name="Path" d="M3.82,3.191a.21.21,0,0,1-.126-.044L.082.377A.21.21,0,0,1,.339.044L3.95,2.813a.21.21,0,0,1-.13.378Z" transform="translate(27.771 48.788)" fill="#372168"/>
        <path id="Path-15" data-name="Path" d="M1.213,1.19a.21.21,0,0,1-.126-.042l-1-.764A.21.21,0,1,1,.348.052l1,.762a.21.21,0,0,1-.13.376Z" transform="translate(30.377 49.021)" fill="#372168"/>
        <path id="Path-16" data-name="Path" d="M13.754.735H.367A.367.367,0,0,1,.367,0H13.754a.367.367,0,0,1,0,.735Z" transform="translate(26.412 18.297)" fill="#372168"/>
        <path id="Path-17" data-name="Path" d="M5.533.735H.367A.367.367,0,0,1,.367,0H5.533a.367.367,0,1,1,0,.735Z" transform="translate(18.889 18.297)" fill="#372168"/>
        <path id="Path-18" data-name="Path" d="M8.95.735H.367A.367.367,0,0,1,.367,0H8.95a.367.367,0,0,1,0,.735Z" transform="translate(31.217 21.871)" fill="#372168"/>
        <path id="Path-19" data-name="Path" d="M10.321.735H.367A.367.367,0,0,1,.367,0h9.953a.367.367,0,1,1,0,.735Z" transform="translate(18.889 21.871)" fill="#372168"/>
        <path id="Path-20" data-name="Path" d="M2.677.735H.367A.367.367,0,0,1,.367,0h2.31a.367.367,0,1,1,0,.735Z" transform="translate(37.489 25.445)" fill="#372168"/>
        <path id="Path-21" data-name="Path" d="M16.986.735H.367A.367.367,0,0,1,.367,0H16.986a.367.367,0,0,1,0,.735Z" transform="translate(18.891 25.445)" fill="#372168"/>
        <path id="Path-22" data-name="Path" d="M18.973.735H.367A.367.367,0,0,1,.367,0H18.973a.367.367,0,0,1,0,.735Z" transform="translate(18.889 29.019)" fill="#372168"/>
        <path id="Path-23" data-name="Path" d="M.236.713A.211.211,0,0,1,.187.293L1.418.005a.21.21,0,0,1,.1.409L.284.7A.2.2,0,0,1,.236.713Z" transform="translate(54.486 6.805)" fill="#372168"/>
        <path id="Path-24" data-name="Path" d="M.213,1.407a.21.21,0,0,1-.151-.065.21.21,0,0,1,0-.3L1.1.061a.21.21,0,1,1,.3.3L.358,1.342A.21.21,0,0,1,.213,1.407Z" transform="translate(53.496 4.988)" fill="#372168"/>
        <path id="Path-25" data-name="Path" d="M.21,1.739H.166A.21.21,0,0,1,0,1.491L.29.17A.215.215,0,1,1,.71.259L.424,1.58A.21.21,0,0,1,.21,1.739Z" transform="translate(52.3 3.713)" fill="#372168"/>
      </g>
    </g>
    <g id="Man" transform="translate(-18164.563 13869.441)">
      <g id="Body" transform="translate(0 3.206)">
        <g id="Pants_color:" data-name="Pants color:" transform="translate(26.198 88.134)">
          <path id="Pants_color:-2" data-name="Pants color:" d="M17.053.006a13.3,13.3,0,0,0-1.374.352A18.8,18.8,0,0,0,9.273,3.982c-.53.452-.882.8-1.022.944a.145.145,0,0,0-.025.165c1.179,2.5,10.38,21.95,17.315,35.5.038.162.078.327.12.5.657,2.627,1.853,6.226,2.363,7.937a82.664,82.664,0,0,0,9.937,21.256,66.041,66.041,0,0,0,5.644,7.6c-2.2-.5-4.435-.869-6.535-1.166l.891-6.426a82.671,82.671,0,0,1-9.937-21.256L9,76.97h0C2.775,78.7,0,81.257,0,81.257c.317.285,20.594,18.424,24.353,18.424s6.414-1.646,9.376-1.808c0,0,3.129-1.151,9.71-3.292s20.419-7.4,17.607-17.115c-1.553-5.41-9.952-17.7-17.088-27.537-3.372-4.648-6.461-8.741-8.412-11.306l-.3-.392c-.29-.377-.552-.714-.777-1.011l-.15-.2L33.4,35.835l-7.57,3.127-.487.185a.12.12,0,0,0-.076.112.12.12,0,0,1,.076-.112l.487-.185,7.57-3.127.917,1.186.15.2c.225.3.5.634.777,1.011l.3.392c1.951,2.56,5.04,6.658,8.412,11.306a14.225,14.225,0,0,0,0-11.461C41.381,32.241,19.353,2.958,17.4.146a.344.344,0,0,0-.347-.14Z" transform="translate(61.418 99.681) rotate(180)" fill="#22577a"/>
          <path id="Pants_color:-3" data-name="Pants color:" d="M17.053.006a13.3,13.3,0,0,0-1.374.352A18.8,18.8,0,0,0,9.273,3.982c-.53.452-.882.8-1.022.944a.145.145,0,0,0-.025.165c1.179,2.5,10.38,21.95,17.315,35.5.038.162.078.327.12.5.657,2.627,1.853,6.226,2.363,7.937a82.664,82.664,0,0,0,9.937,21.256,66.041,66.041,0,0,0,5.644,7.6c-2.2-.5-4.435-.869-6.535-1.166l.891-6.426a82.671,82.671,0,0,1-9.937-21.256L9,76.97h0C2.775,78.7,0,81.257,0,81.257c.317.285,20.594,18.424,24.353,18.424s6.414-1.646,9.376-1.808c0,0,3.129-1.151,9.71-3.292s20.419-7.4,17.607-17.115c-1.553-5.41-9.952-17.7-17.088-27.537-3.372-4.648-6.461-8.741-8.412-11.306l-.3-.392c-.29-.377-.552-.714-.777-1.011l-.15-.2L33.4,35.835l-7.57,3.127-.487.185a.12.12,0,0,0-.076.112.12.12,0,0,1,.076-.112l.487-.185,7.57-3.127.917,1.186.15.2c.225.3.5.634.777,1.011l.3.392c1.951,2.56,5.04,6.658,8.412,11.306a14.225,14.225,0,0,0,0-11.461C41.381,32.241,19.353,2.958,17.4.146a.344.344,0,0,0-.347-.14Z" transform="translate(61.418 99.681) rotate(180)" fill="#22577a"/>
        </g>
        <path id="Shape-2" data-name="Shape" d="M9.405,0a.787.787,0,0,0-.152.015A14.361,14.361,0,0,0,7.817.382,19.159,19.159,0,0,0,1.238,4.1c-.567.482-.927.844-1.054.977a.639.639,0,0,0-.118.734c.1.2,9.99,21.2,17.32,35.5a.5.5,0,0,0,.931-.34c-.08-.347-.147-.677-.207-.977l.19-.072,7.23-3,.682.884.152.2.435.567.439.575c.067.085.132.175.2.25,1.966,2.577,5.02,6.633,8.4,11.291a.5.5,0,0,0,.847-.06,14.664,14.664,0,0,0,.017-11.883c-2.1-5.08-16.566-24.74-23.519-34.188C11.613,2.425,10.474.877,10.1.34A.851.851,0,0,0,9.419,0Z" transform="translate(79.906 188.315) rotate(180)" fill="#22577a"/>
        <path id="Skin_color:" data-name="Skin color:" d="M41.53,7.69c.077.112.634,1.149,1.249,2.313a18.514,18.514,0,0,1,6.4-3.616L45.656,0ZM58.393,42.632a13.053,13.053,0,0,1,1,2.325l6.791-2.807L63.118,34.2ZM4.688,72.529a1.086,1.086,0,0,0-.889.929,1.508,1.508,0,0,0-1.7,1.748S.415,76,.889,77.5c0,0-1.5.34-.6,3,.794,2.36,5.127,7.492,6.146,8.544a1.7,1.7,0,0,1,.21.25.865.865,0,0,1,.132.38A218.159,218.159,0,0,0,11.83,116.1c1.149,4.937,10.052,15.4,10.052,15.4.892-1.489,3.157-3.841,8.9-6.626,0,0-4.8-5.707-8.284-8.334a3.42,3.42,0,0,1-1.329-2.248c-.877-6.046-5.322-19.306-7.373-24.855-.232-.627-.419-1.136-.554-1.5a3.418,3.418,0,0,1-.2-1.409c.162-2.308.967-7.2-.025-9.358-.632-1.374-4.081-3.394-4.94-4.218a.427.427,0,0,0-.679.11,1.154,1.154,0,0,0-.08.654,3.457,3.457,0,0,0-2.246-1.231A1.793,1.793,0,0,0,4.688,72.529Zm96.26,48.356c-3.329.042-10.172,3.714-14.033,8.112a15.7,15.7,0,0,1,7.582,8.314A42.735,42.735,0,0,0,100.683,132c6.243,3.891,6.581,7.3,6.581,7.3.22,1.539-2.048,3.831,0,8.556.909,2.083,1.556,3.943,1.853,4.828a.464.464,0,0,0,.749.215,2.832,2.832,0,0,0,.864-2.959c-.5-2.63-.984-2.747-.33-3.014.22-.09.629.462,1.116,1.249h0l-.008.009c-.727.787,1.141,3.047,2.642,4.108.057.042.112.083.17.118a1.008,1.008,0,0,0,.132.075h.02a1.225,1.225,0,0,0,.422.095,1.344,1.344,0,0,0,.4-.035.373.373,0,0,0,.117-.035l.03-.018.02-.01a.569.569,0,0,0,.19-.137l.028-.031a1.124,1.124,0,0,0,.3-.816,1.927,1.927,0,0,0-.158-.744l0-.028c-.02-.1-.037-.2-.055-.3-.264-1.244-.328-1.8-.334-1.86l.007.007c.062.062,1.179,1.139,2.138.712a1.044,1.044,0,0,0,.555-1.049,1.951,1.951,0,0,0-.545-1.286c.068.063.14.127.22.195a1.633,1.633,0,0,0,.614.387,1.249,1.249,0,0,0,1.309-.29c.621-.585-.022-1.827-.07-1.916a1.627,1.627,0,0,0,.806-2.228c-1.139-1.5-2.82-1.985-2.977-1.171a.959.959,0,0,0,.03.422.963.963,0,0,1-.035-.437c.16-.8,1.843-.322,2.98,1.181-.027-.082-.063-.167-.1-.25a16.735,16.735,0,0,0-7.285-6.95s-1.923-6.169-8.474-13.069A4.808,4.808,0,0,0,101,120.885Zm14.933,22.105c.829-.482,2.425.938,3.251,1.763l.069.077c-.8-.812-2.467-2.318-3.318-1.83-.542.312-.315,1.114.173,1.955C115.563,144.111,115.331,143.3,115.88,142.991Zm-2.268,1.818s.678-.934,3.861,2.017l.046.048c-3.226-2.995-3.9-2.053-3.9-2.053s-.262.2-.138.791C113.35,145.008,113.612,144.809,113.612,144.809Zm5.675.113c.142.144.25.259.312.329ZM49.9,156.582v8.779c.175-.2.35-.4.525-.579a11.959,11.959,0,0,1,2.138-1.791,8.823,8.823,0,0,1,4.718-1.516h.5a8.819,8.819,0,0,1,4.718,1.516,11.9,11.9,0,0,1,2.138,1.793c.162.192.342.4.522.61v-8.811c-.2-1.281-3.539-2.3-7.627-2.3S50.1,155.3,49.9,156.582Zm7.393,4.933a8.721,8.721,0,0,0-4.668,1.5,11.986,11.986,0,0,0-2.113,1.771c-.175.183-.347.375-.52.575a17.682,17.682,0,0,0-2.892,4.858c-.053.127-.1.25-.155.387-.082.215-.167.437-.25.657-.115.327-.23.659-.337,1l-.172.547a20.252,20.252,0,0,0-.649,3.184c-.022.182-.045.37-.065.559,0,.07-.015.14-.02.21,0,0-.03.21-.065.572a.574.574,0,0,0,0,.062c-.165,1.818-.42,7.106,1.716,10.572a11.57,11.57,0,0,0,10.437,5.367,11.568,11.568,0,0,0,10.434-5.367c2.117-3.461,1.866-8.737,1.7-10.563a2.416,2.416,0,0,0,1.81-.116c1.324-.619,1.893-2.7.644-4.6a3.466,3.466,0,0,0-3.753-1.428h0c-.082-.22-.165-.442-.25-.657-.05-.132-.1-.25-.155-.387a17.592,17.592,0,0,0-2.869-4.825c-.177-.21-.357-.412-.542-.6a11.921,11.921,0,0,0-2.113-1.773,8.723,8.723,0,0,0-4.668-1.5ZM42.917,172.688c-1.249,1.9-.682,3.978.627,4.6a2.581,2.581,0,0,0,.32.127,2.474,2.474,0,0,0,1.5-.017.625.625,0,0,1,0-.065v-.137c.028-.277.053-.435.053-.435a1.988,1.988,0,0,1,.02-.21c.03-.277.062-.55.1-.817a19.9,19.9,0,0,1,.614-2.922q.257-.8.537-1.546a3.952,3.952,0,0,0-.888-.1A3.34,3.34,0,0,0,42.917,172.688Z" transform="translate(121.112 193.835) rotate(180)" fill="#dd9488"/>
        <path id="Path-26" data-name="Path" d="M0,0V7.015A22.308,22.308,0,0,0,14.271,1.9V.027l-.025.027A12.06,12.06,0,0,1,12.11,1.846,8.814,8.814,0,0,1,7.393,3.359h-.5a8.814,8.814,0,0,1-4.72-1.513A12.18,12.18,0,0,1,.035.052Z" transform="translate(56.455 29.001)" fill="#7c3830" opacity="0.15" style="mix-blend-mode: multiply;isolation: isolate"/>
        <g id="Top_color:" data-name="Top color:" transform="translate(26.273 35.227)">
          <path id="Top_color:-2" data-name="Top color:" d="M73.5,25.459a.779.779,0,0,1,.027.682,4.281,4.281,0,0,1-.567.982h0c-.889,1.484-3.152,3.826-8.9,6.611l-1.234.6c.022.315.312,4.59.365,8.741a45.864,45.864,0,0,0,.577,6.793c.872,5.35,1.916,16.061-2.42,21.478h0c-.32-.282-20.594-18.424-24.353-18.424s-6.416,1.646-9.373,1.811h0c-.986-4.443.659-10.692.659-10.692-6.776-9.625-9.85-21.453-9.9-21.656h0l-4.933,3.9-4.273,3.5a.654.654,0,0,1-.692.1q-.277-.122-.539-.25A15.687,15.687,0,0,1,.357,21.319C.195,20.9.085,20.569.02,20.352a.477.477,0,0,1,.117-.472c2-2,9.361-9.638,13.374-12.557C20.177,2.475,29.7.27,29.7.27,35.819,3.784,42.522,1.321,44.2.559A2.438,2.438,0,0,0,44.975,0h0A76.092,76.092,0,0,1,57.242,5.6a26.958,26.958,0,0,1,8.711,8.054C68.451,17.285,71.64,22.073,73.5,25.459Z" transform="translate(0 0)" fill="#8ab99e"/>
          <path id="Top_color:-3" data-name="Top color:" d="M73.5,25.459a.779.779,0,0,1,.027.682,4.281,4.281,0,0,1-.567.982h0c-.889,1.484-3.152,3.826-8.9,6.611l-1.234.6c.022.315.312,4.59.365,8.741a45.864,45.864,0,0,0,.577,6.793c.872,5.35,1.916,16.061-2.42,21.478h0c-.32-.282-20.594-18.424-24.353-18.424s-6.416,1.646-9.373,1.811h0c-.986-4.443.659-10.692.659-10.692-6.776-9.625-9.85-21.453-9.9-21.656h0l-4.933,3.9-4.273,3.5a.654.654,0,0,1-.692.1q-.277-.122-.539-.25A15.687,15.687,0,0,1,.357,21.319C.195,20.9.085,20.569.02,20.352a.477.477,0,0,1,.117-.472c2-2,9.361-9.638,13.374-12.557C20.177,2.475,29.7.27,29.7.27,35.819,3.784,42.522,1.321,44.2.559A2.438,2.438,0,0,0,44.975,0h0A76.092,76.092,0,0,1,57.242,5.6a26.958,26.958,0,0,1,8.711,8.054C68.451,17.285,71.64,22.073,73.5,25.459Z" transform="translate(0 0)" fill="#b9d719"/>
        </g>
        <path id="Combined_Shape" data-name="Combined Shape" d="M13.469.257,7.435,11.5.1,25.175a.827.827,0,0,0,.337,1.116l1.806.969L15.931,1.733A4.376,4.376,0,0,0,14.091.042a.479.479,0,0,0-.622.215ZM31.62,34.3a.726.726,0,0,0-.439.354L25.07,45.584,17.492,59.133a.824.824,0,0,0,.317,1.119l1.791,1L33.748,35.964a4.5,4.5,0,0,0-1.568-1.6.726.726,0,0,0-.56-.067Z" transform="translate(91.886 216.419) rotate(180)" fill="#fff"/>
        <g id="Shoe_color:" data-name="Shoe color:" transform="translate(57.097 150.415)">
          <path id="Shoe_color:-2" data-name="Shoe color:" d="M13.4.5,3.159,19.645,0,25.552l8.422,4.52a.749.749,0,0,0,1-.3l5.222-9.74a1.274,1.274,0,0,0,.152-.579c.018-.829.065-3.2.092-5.617.02-1.863.033-3.746,0-4.967A66.846,66.846,0,0,0,14.41,2.15a4.976,4.976,0,0,0-.734-2.1c.018,0,.005-.03-.007-.047ZM31.206,34.727,20.647,53.693l-3.262,5.852,8.342,4.663a.749.749,0,0,0,1.014-.285l5.389-9.64a1.248,1.248,0,0,0,.163-.577c.032-.827.12-3.2.19-5.612.052-1.866.1-3.746.1-4.967,0-2.857-.227-5.44-.36-6.721a5.013,5.013,0,0,0-.7-2.115.269.269,0,0,0-.037-.062Z" transform="translate(32.579 64.301) rotate(180)" fill="#f66"/>
          <path id="Shoe_color:-3" data-name="Shoe color:" d="M13.4.5,3.159,19.645,0,25.552l8.422,4.52a.749.749,0,0,0,1-.3l5.222-9.74a1.274,1.274,0,0,0,.152-.579c.018-.829.065-3.2.092-5.617.02-1.863.033-3.746,0-4.967A66.846,66.846,0,0,0,14.41,2.15a4.976,4.976,0,0,0-.734-2.1c.018,0,.005-.03-.007-.047ZM31.206,34.727,20.647,53.693l-3.262,5.852,8.342,4.663a.749.749,0,0,0,1.014-.285l5.389-9.64a1.248,1.248,0,0,0,.163-.577c.032-.827.12-3.2.19-5.612.052-1.866.1-3.746.1-4.967,0-2.857-.227-5.44-.36-6.721a5.013,5.013,0,0,0-.7-2.115.269.269,0,0,0-.037-.062Z" transform="translate(32.579 64.301) rotate(180)" fill="rgba(255,255,255,0.16)"/>
        </g>
        <ellipse id="Light_layer" data-name="Light layer" cx="2.003" cy="2.003" rx="2.003" ry="2.003" transform="translate(63.27 155.603)" fill="#fff" opacity="0.4" style="mix-blend-mode: soft-light;isolation: isolate"/>
        <ellipse id="Light_layer-2" data-name="Light layer" cx="2.003" cy="2.003" rx="2.003" ry="2.003" transform="translate(80.203 189.829)" fill="#fff" opacity="0.4" style="mix-blend-mode: soft-light;isolation: isolate"/>
        <path id="Combined_Shape-2" data-name="Combined Shape" d="M46.058,0a1,1,0,0,0-.867.519L39.2,11.7a.569.569,0,0,0-.042.065L31.817,25.442a1.324,1.324,0,0,0,.542,1.781l1.671.9a.5.5,0,0,0,.114.085l.6.322a.5.5,0,0,0,.139.05L42.569,32.7a1.248,1.248,0,0,0,1.683-.5l.217-.4c.206.38.481.894.809,1.511a.5.5,0,0,0,.347.25.51.51,0,0,0,.1.009.5.5,0,0,0,.324-.119,18.059,18.059,0,0,1,6.229-3.529.5.5,0,0,0,.29-.719l-3.4-6.152.314-.586a1.8,1.8,0,0,0,.212-.807v-.082c.04-2.007.071-3.921.09-5.537.013-1.353.036-3.617,0-4.983-.05-2.852-.322-5.462-.48-6.763a5.535,5.535,0,0,0-.7-2.129.5.5,0,0,0-.073-.2A4.854,4.854,0,0,0,46.467.08.949.949,0,0,0,46.084,0ZM32.824,26.346a.331.331,0,0,1-.132-.442l7.3-13.6a.562.562,0,0,0,.042-.065L46.065,1a3.772,3.772,0,0,1,1.4,1.19l-.141.261L34.175,27.07Zm15.243-23a4.954,4.954,0,0,1,.259,1.083c.155,1.282.422,3.851.472,6.663.012.621.012,1.417.01,2.253l-1.12,2.588-2.1.174a.249.249,0,1,0,.04.5l1.835-.152-.939,2.171a.249.249,0,0,0,.2.426l1.815-.151-.943,2.179a.251.251,0,1,0,.459.2l.693-1.6c-.014.769-.026,1.427-.036,1.895v.085a.748.748,0,0,1-.095.352l-.422.788a.5.5,0,0,0-.035.056l-4.123,7.69a.5.5,0,0,0-.033.075l-.606,1.131a.25.25,0,0,1-.145.117.245.245,0,0,1-.072.011.25.25,0,0,1-.115-.028l-7.992-4.283ZM48.8,14.615c0,.432,0,.844,0,1.223l-.545.045Zm-.008,1.724c-.009.7-.019,1.387-.029,2.038l-1.651.137.914-2.111ZM45.355,31.369c-.122-.227-.237-.441-.327-.6h.01L48.6,24.128l2.795,5.05a19.072,19.072,0,0,0-5.522,3.134C45.711,32.032,45.522,31.68,45.355,31.369Zm18.317,2.949a1.242,1.242,0,0,0-.749.592L56.834,45.772a.534.534,0,0,0-.042.065L49.215,59.388a1.323,1.323,0,0,0,.5,1.8l1.793,1a.5.5,0,0,0,.056.027l.548.308a.5.5,0,0,0,.068.033l7.667,4.288a1.246,1.246,0,0,0,1.428-.153c.112.262.251.608.42,1.065l-.09.035a.615.615,0,0,0-.387.682c.076.4.16.84.27,1.314a.182.182,0,0,0,0,.035l.045.18.014.06v0c.019.082.04.17.063.258.481,1.924,1.239,4.338,1.793,6.1.212.673.378,1.207.508,1.633l-18.792,27.58a33.447,33.447,0,0,0-3.893,1.363,25.89,25.89,0,0,0-2.839,1.406,13.922,13.922,0,0,0-2.294,1.585.5.5,0,0,0-.09.11c-4.351,5.507-3.427,16.033-2.485,21.828a45.5,45.5,0,0,1,.572,6.716c.044,3.464.254,7.043.342,8.421l-.571.277a65.173,65.173,0,0,0-8.1-8.1,2.907,2.907,0,0,1-1.134-1.926c-.887-6.115-5.367-19.453-7.4-24.955l-.214-.577,0-.012c-.133-.358-.248-.667-.336-.909a2.938,2.938,0,0,1-.17-1.2c.03-.422.082-.923.142-1.5l.013-.125c.265-2.583.627-6.121-.225-7.975C15.952,99,14.206,97.754,12.8,96.752l-.01-.007a15.817,15.817,0,0,1-1.409-1.067.932.932,0,0,0-.812-.25.9.9,0,0,0-.6.4,3.263,3.263,0,0,0-1.956-.764H8a2.288,2.288,0,0,0-.487.052,1.528,1.528,0,0,0-1.146.924,2.172,2.172,0,0,0-1.344.592,1.889,1.889,0,0,0-.5,1.351,3.054,3.054,0,0,0-.915.889,2.053,2.053,0,0,0-.334,1.416,1.759,1.759,0,0,0-.542.595,3.523,3.523,0,0,0,.033,2.837c.865,2.565,5.364,7.81,6.264,8.741a1.065,1.065,0,0,1,.147.182.365.365,0,0,1,.055.165,220.7,220.7,0,0,0,5.062,26.467l.008.031a17.4,17.4,0,0,0,2.025,4.484c.868,1.476,2,3.167,3.351,5.026,1.945,2.667,3.839,4.963,4.518,5.773a5.016,5.016,0,0,0-.407.769,1.269,1.269,0,0,0,.052,1.119c1.9,3.464,5.173,8.364,7.585,11.865a27.628,27.628,0,0,0,8.871,8.207,77,77,0,0,0,12.018,5.517v6.324a18.126,18.126,0,0,0-2.755,4.728l-.042.1h0c-.041.1-.08.188-.117.3l-.044.115-.041.107-.023.06a4.554,4.554,0,0,0-.567-.049h-.084a3.816,3.816,0,0,0-3.208,1.749,4.287,4.287,0,0,0-.637,3.5,2.851,2.851,0,0,0,1.468,1.84,3.074,3.074,0,0,0,.375.147,2.942,2.942,0,0,0,.908.143c.07,0,.143,0,.214-.008-.157,2.437-.126,7,1.842,10.2a11.271,11.271,0,0,0,5.374,4.613,12.959,12.959,0,0,0,2.819.8,14.787,14.787,0,0,0,2.417.2l.258,0,.279,0a12.026,12.026,0,0,0,10.572-5.607,13.982,13.982,0,0,0,1.782-5.968,26.11,26.11,0,0,0,.059-4.236c.074.005.147.008.218.008a2.974,2.974,0,0,0,.786-.106,2.729,2.729,0,0,0,1.946-2.018,4.294,4.294,0,0,0-.634-3.5,3.829,3.829,0,0,0-3.215-1.749h-.079a4.563,4.563,0,0,0-.554.036l-.016-.045-.006-.016,0-.007-.078-.211c-.044-.118-.078-.2-.114-.29l-.026-.064-.017-.042a17.973,17.973,0,0,0-2.787-4.76v-6.519c.813-.208,2.843-.76,5.336-1.662a54.842,54.842,0,0,0,5.291-2.22,35.726,35.726,0,0,0,5.359-3.158c3.643-2.65,9.97-9.089,12.672-11.838.265-.272.5-.507.684-.7l.077-.078a.973.973,0,0,0,.25-.967c-.049-.158-.119-.378-.216-.642a42.393,42.393,0,0,0,5.665-4.855,21.721,21.721,0,0,1,3.188,2.459,13.022,13.022,0,0,1,1.8,2.076,6.163,6.163,0,0,1,1.016,2.154.19.19,0,0,0,0,.019,3.906,3.906,0,0,1-.287,1.483v0a10.618,10.618,0,0,0-.572,2.88,9.772,9.772,0,0,0,.9,4.337c.826,1.9,1.454,3.652,1.836,4.79a.966.966,0,0,0,1.528.444,3.324,3.324,0,0,0,1.039-3.441l0-.009a9.866,9.866,0,0,0,2.634,2.859l.167.117.022.015a1.261,1.261,0,0,0,.19.1l.03.015a1.676,1.676,0,0,0,.6.14c.036,0,.073,0,.109,0a1.863,1.863,0,0,0,.443-.053,1.217,1.217,0,0,0,.177-.057l.038-.018.057-.03a1.3,1.3,0,0,0,.118-.07,1.131,1.131,0,0,0,.214-.172l.018-.018a1.227,1.227,0,0,0,.174-.231,1.609,1.609,0,0,0,.26-.941,2.437,2.437,0,0,0-.106-.7c-.009-.06-.019-.118-.029-.173l-.032-.17-.025-.137c-.051-.241-.1-.466-.136-.668a2.307,2.307,0,0,0,.954.227,1.659,1.659,0,0,0,.68-.143,1.49,1.49,0,0,0,.857-1.5c0-.044,0-.09-.008-.137a1.8,1.8,0,0,0,.214.013,1.739,1.739,0,0,0,1.22-.5,1.555,1.555,0,0,0,.4-1.518,3.383,3.383,0,0,0-.159-.563,2.011,2.011,0,0,0,.681-.895,2.388,2.388,0,0,0,.018-1.518.5.5,0,0,0-.025-.213c-.03-.089-.067-.186-.11-.287a13.238,13.238,0,0,0-2.75-3.736,19.628,19.628,0,0,0-2.148-1.864,16.026,16.026,0,0,0-2.439-1.515,28.4,28.4,0,0,0-2.173-4.6,41.561,41.561,0,0,0-2.555-3.923,46.8,46.8,0,0,0-3.791-4.529l-.127-.137-.106-.1a5.227,5.227,0,0,0-3.77-1.815h-.062c-3.958.049-10.731,4.277-14.151,8-.067-.03-.136-.058-.2-.084a1.153,1.153,0,0,0-1.219.18l-4.266,3.5L79.7,158.493a75.162,75.162,0,0,0-9.643-20.9,35.894,35.894,0,0,0,.752-4.266,20.812,20.812,0,0,0-.064-6.027c1.034-.367,4.09-1.451,9.282-3.141a46.366,46.366,0,0,0,12.457-5.784c4.9-3.493,6.744-7.51,5.475-11.94-1.588-5.524-10.211-18.11-17.165-27.695-1.442-1.986-2.908-3.981-4.359-5.93a5.481,5.481,0,0,1,2.178-.6,1.636,1.636,0,0,1,1.075.337c.121.1.32.3.282.467s-.237.3-.539.375a.257.257,0,0,0,.061.507.255.255,0,0,0,.061-.007,1.174,1.174,0,0,0,.9-.749.969.969,0,0,0-.45-.962,2.144,2.144,0,0,0-1.334-.468h-.06a6.063,6.063,0,0,0-2.485.688c-1.8-2.411-3.124-4.151-3.754-4.973l-.2-.25-.445-.582-.435-.567-.152-.2-.917-1.189a.5.5,0,0,0-.392-.207.516.516,0,0,0-.192.038l-.23.1L66.608,57.3l.321-.574a1.794,1.794,0,0,0,.227-.8v-.082l.006-.173c.035-.947.118-3.164.181-5.359.066-2.315.1-3.949.1-4.995,0-2.857-.227-5.468-.362-6.771a5.565,5.565,0,0,0-.674-2.158.5.5,0,0,0-.06-.168A5.035,5.035,0,0,0,64.6,34.45a1.176,1.176,0,0,0-.6-.175A1.309,1.309,0,0,0,63.672,34.318Zm-13.452,26a.334.334,0,0,1-.155-.195.324.324,0,0,1,.03-.25l7.54-13.486a.421.421,0,0,0,.042-.065L63.79,35.4a.248.248,0,0,1,.147-.115.2.2,0,0,1,.056-.008.207.207,0,0,1,.1.025,3.876,3.876,0,0,1,1.191,1.115l-.149.266L51.555,61.06Zm15.637-22.74a4.871,4.871,0,0,1,.237,1.077c.132,1.281.355,3.85.357,6.668,0,.555-.01,1.3-.029,2.242l-1.172,2.584-2.088.142a.25.25,0,0,0,.032.5l1.821-.124-.979,2.159-.005.015a.249.249,0,0,0,.21.4l1.823-.119-.982,2.162a.251.251,0,0,0,.457.207l.7-1.535c-.026.745-.049,1.383-.066,1.84v.085a.752.752,0,0,1-.1.352l-.409.731a.5.5,0,0,0-.044.064l-4.713,8.434a.511.511,0,0,0-.027.057l-.2.353a.24.24,0,0,1-.212.126.25.25,0,0,1-.12-.031l-7.7-4.3-.037-.023-.174-.1.634-1.139Zm.535,11.261q-.015.583-.033,1.235l-.544.037Zm-.047,1.737c-.021.695-.042,1.384-.064,2.035l-1.65.109.949-2.092ZM61.917,65.711l4.054-7.255,2.5,6.493-5.857,2.42A14.771,14.771,0,0,0,61.917,65.711Zm7.757-.18.682.884.152.2.435.567.439.575.036.045,0,0,.018.023c.047.061.1.125.147.179,1.941,2.545,4.974,6.569,8.4,11.291,9.9,13.645,15.785,23.115,17.013,27.385,1.146,3.975-.567,7.625-5.092,10.849a45.251,45.251,0,0,1-12.185,5.649c-6.1,1.98-9.314,3.145-9.66,3.272a18.009,18.009,0,0,0-3.909.834h0a18.353,18.353,0,0,1-5.362.969c-.812,0-3.6-1.168-13.149-8.991-4.73-3.874-9.181-7.8-10.432-8.916a19.054,19.054,0,0,1,2.8-1.706c.341-.173.694-.342,1.05-.5l2.49,2.84a1.249,1.249,0,0,0,1.249.395c1.684-.4,7.371-2.02,9.865-6.062.872-.024,1.824-.037,2.909-.037,1.325,0,2.849.019,4.658.058a111.408,111.408,0,0,1,11.2,1,.531.531,0,0,0,.067,0,.514.514,0,0,0,.094-.009c2.23.319,4.318.692,6.208,1.109.053.035,1.305.872,2.727,1.616a.5.5,0,1,0,.462-.887c-1.246-.651-2.379-1.392-2.594-1.533A67.195,67.195,0,0,1,74.809,99.1a82.559,82.559,0,0,1-9.878-21.126c-.122-.415-.28-.918-.462-1.5l-.036-.116,0-.008-.078-.249-.024-.076c-.577-1.841-1.3-4.132-1.755-5.966l-.075-.312-.038-.155a.142.142,0,0,1,0-.028c-.082-.338-.15-.672-.207-.959v0l.19-.073.394-.163,6.484-2.681a.493.493,0,0,0,.069-.035ZM64.287,79.289a84.505,84.505,0,0,0,9.595,20.239l-.8,5.724c-5.427-.733-9.944-.9-10.794-.928h-.025c-1.742-.035-3.218-.051-4.511-.051-1.868,0-3.433.036-4.784.109a34.669,34.669,0,0,0-6.371.864ZM7.721,96.091a1.3,1.3,0,0,1,.294-.033,2.137,2.137,0,0,1,1.286.519,3.643,3.643,0,0,1,.563.53,30.435,30.435,0,0,0,1.981,3.348,3.256,3.256,0,0,0,.809.567.5.5,0,0,0,.43-.9,2.441,2.441,0,0,1-.544-.385c-.187-.2-1.059-1.732-1.805-3.116a.815.815,0,0,1,.009-.143c.315.283.822.646,1.41,1.065l.026.018c.553.394,1.31.932,1.956,1.463a5.039,5.039,0,0,1,1.356,1.442c.741,1.589.382,5.075.145,7.382l-.008.074c-.078.743-.127,1.255-.157,1.661a3.93,3.93,0,0,0,.227,1.613c.186.509.367,1,.555,1.5,2.019,5.466,6.472,18.708,7.348,24.75a3.876,3.876,0,0,0,.357,1.171q-.578-.234-1.176-.419a.562.562,0,0,0-.13-.02.5.5,0,0,0-.13.982,14.091,14.091,0,0,1,3.919,1.948c.934.818,2,1.844,3.171,3.067,1.439,1.5,2.686,2.914,3.3,3.626a33.861,33.861,0,0,0-5.463,3.316,13.679,13.679,0,0,0-2.687,2.628c-.835-1.008-3-3.668-5.065-6.586-1.144-1.618-2.09-3.081-2.813-4.349a15.14,15.14,0,0,1-1.647-3.745l-.01-.038,0-.009c-.243-.947-1.114-4.4-2.1-9.008-.61-2.86-1.153-5.644-1.613-8.275-.569-3.258-1.014-6.3-1.322-9.04a1.364,1.364,0,0,0-.212-.6,2.312,2.312,0,0,0-.265-.332c-.971-.994-5.272-6.1-6.036-8.359a2.566,2.566,0,0,1-.12-2,.678.678,0,0,1,.1-.158l.738,1.17a.5.5,0,1,0,.842-.535l-.982-1.558a1.113,1.113,0,0,1,.025-.61,1.427,1.427,0,0,1,.327-.526,2.166,2.166,0,0,1,.285-.251l1.191,1.608a.5.5,0,0,0,.8-.595l-1.4-1.892a1.072,1.072,0,0,1,.236-.712,1.233,1.233,0,0,1,.78-.3L8.123,99.05a.5.5,0,0,0,.779-.627l-1.611-2A.537.537,0,0,1,7.721,96.091Zm66.345,9.315.641-4.625c1.254,1.864,2.6,3.69,4.008,5.425C77.255,105.911,75.691,105.642,74.066,105.405Zm-28.508,1.147a33.847,33.847,0,0,1,8.5-1.22,10.128,10.128,0,0,1-2.276,2.363,15.8,15.8,0,0,1-2.726,1.651,22.4,22.4,0,0,1-4.378,1.555.772.772,0,0,1-.749-.25l-2.388-2.721a31.888,31.888,0,0,1,3.859-1.359h.026A.5.5,0,0,0,45.558,106.553ZM34.509,131.76a44.958,44.958,0,0,1-.412-14.045,19.886,19.886,0,0,1,1.077-4.084,12.2,12.2,0,0,1,1.333-2.54c.3.265.668.592,1.1.971,2.3,2.027,6.118,5.349,10.056,8.55,3.124,2.539,5.773,4.556,7.872,5.993q1.642,1.124,2.838,1.778a24.3,24.3,0,0,0,5.9,2.434.25.25,0,0,0,.14-.48,30.861,30.861,0,0,1-3.093-1.062,18.6,18.6,0,0,0,4.561-.841l.474-.135.07-.02.011,0h0c.588-.172,1.161-.34,1.731-.477q.72-.162,1.451-.267a16.178,16.178,0,0,1-.8,1.546.249.249,0,1,0,.34.365,7.346,7.346,0,0,0,.7-1.269,17.855,17.855,0,0,1,.109,2.689,29.109,29.109,0,0,1-.287,3.236,30.8,30.8,0,0,1-.67,3.446A.5.5,0,0,0,69,137.7a26.155,26.155,0,0,0-.711,8.639.249.249,0,0,0,.5-.042,25.679,25.679,0,0,1,.57-7.961,58.926,58.926,0,0,1,4.026,6.847c1.082,2.141,2.1,4.438,3.037,6.825a74.861,74.861,0,0,1,2.493,7.41l0,.015v.025a.506.506,0,0,0,.021.055,38.557,38.557,0,0,1,.839,7.96.5.5,0,1,0,1,0,39.161,39.161,0,0,0-.768-7.733,7.785,7.785,0,0,1,2.014,2.955.25.25,0,1,0,.464-.185,8.183,8.183,0,0,0-2.246-3.23l4.4-3.483,4.281-3.5a.159.159,0,0,1,.109-.043.157.157,0,0,1,.063.013c.178.08.351.159.519.25a15.194,15.194,0,0,1,7.34,8.052c.158.4.264.724.325.924-.19.176-.437.426-.749.749l-.038.039c-2.68,2.724-8.954,9.1-12.512,11.7a34.053,34.053,0,0,1-4.809,2.874,51.763,51.763,0,0,1-4.838,2.1,59.141,59.141,0,0,1-6.17,1.955,14.711,14.711,0,0,0-7.236-1.82,19.214,19.214,0,0,0-7.549,1.608l-.062.029v-.806h0l0,.808a2.851,2.851,0,0,0-.621.409,75.244,75.244,0,0,1-11.9-5.455,26.573,26.573,0,0,1-8.549-7.907c-3.52-5.123-6.054-9.087-7.53-11.781a.273.273,0,0,1,0-.25,3.755,3.755,0,0,1,.423-.769.5.5,0,0,0,.134-.148c.851-1.419,3.049-3.684,8.689-6.416a.493.493,0,0,0,.1-.063l.678-.328a21.538,21.538,0,0,0,7.206,7.214,13.025,13.025,0,0,1,3.636,3.194.5.5,0,1,0,.769-.639,13.894,13.894,0,0,0-3.879-3.4,20.386,20.386,0,0,1-7.018-7.146c-.043-.641-.307-4.708-.357-8.62-.013-1.23-.076-2.466-.187-3.7a29.468,29.468,0,0,0,1.818,3.11.25.25,0,0,0,.412-.282,28.608,28.608,0,0,1-2.388-4.305Q34.645,132.6,34.509,131.76ZM90.66,151.932c3.309-3.488,9.673-7.423,13.237-7.468h.047a4.14,4.14,0,0,1,3.1,1.626l.01.01.135.143a45.137,45.137,0,0,1,4,4.848,40.216,40.216,0,0,1,2.57,4.1,28.971,28.971,0,0,1,1.579,3.353,6.447,6.447,0,0,0-1.43.406.5.5,0,1,0,.382.924,5.223,5.223,0,0,1,1.629-.4,15.6,15.6,0,0,1,3.226,2.149,18.151,18.151,0,0,1,2.519,2.607,1.806,1.806,0,0,0-.6-.118l-.078,0h-.012a1.35,1.35,0,0,0-.3.032.947.947,0,0,0-.749.764,1.36,1.36,0,0,0,.072.768,2.33,2.33,0,0,0-.65-.175,1.552,1.552,0,0,0-.163-.009h-.02a1.216,1.216,0,0,0-.6.16,1.1,1.1,0,0,0-.557.827,1.872,1.872,0,0,0,.075.767,2.323,2.323,0,0,0,.088.265c.014.038.03.077.048.12l0,.007,0,.008a2.619,2.619,0,0,0-.808-.318,1.935,1.935,0,0,0-.463-.062h-.132a1,1,0,0,0-.629.28,1.069,1.069,0,0,0-.31.712,3.3,3.3,0,0,0,.682,1.944,12.7,12.7,0,0,0,1.321,1.663v0c.01.066.024.16.044.281a5.477,5.477,0,0,0-2.943-1.634h0a1.068,1.068,0,0,0-.363.063c-.409-.626-.8-1.091-1.224-1.091a.642.642,0,0,0-.243.049c-.823.345-.657.906-.464,1.556a18.472,18.472,0,0,1,.5,2.016,2.5,2.5,0,0,1-.652,2.452c-.383-1.141-1.017-2.9-1.853-4.828a8.3,8.3,0,0,1-.288-6.524l.007-.023a4.44,4.44,0,0,0,.316-1.879,2.954,2.954,0,0,0-.167-.69,7.764,7.764,0,0,0-.846-1.692,13.559,13.559,0,0,0-2.042-2.413,23.364,23.364,0,0,0-3.756-2.855.5.5,0,0,0-.158-.064,5.044,5.044,0,0,1-2.087-1.879.5.5,0,0,0-.887.457,5.994,5.994,0,0,0,2.033,2.048,43.283,43.283,0,0,1-5.132,4.413,16.121,16.121,0,0,0-2.874-4.429q-.308-.338-.634-.657a15.419,15.419,0,0,0-3.51-2.605Zm31.99,15.793a.5.5,0,0,0-.09-.149,10.8,10.8,0,0,1-1.315-1.706,1.69,1.69,0,0,1-.3-.768.4.4,0,0,1,.052,0,1.849,1.849,0,0,1,.821.291,4.086,4.086,0,0,1,1.138,1.018,1.241,1.241,0,0,1-.267,1.359Zm-1.144,2.381a1.154,1.154,0,0,1-.43-.272l-.147-.124a.5.5,0,0,0-.072-.1,10.189,10.189,0,0,1-1.343-1.728,2.505,2.505,0,0,1-.487-1.286.06.06,0,0,1,.047-.072.274.274,0,0,1,.137-.03,2.062,2.062,0,0,1,.936.388,9.863,9.863,0,0,1,1.533,1.27l.1.115c.011.014.023.028.035.04l.012.012c.14.155.278.3.367.387.18.375.361,1.009.118,1.219a.753.753,0,0,1-.542.232A.745.745,0,0,1,121.506,170.106Zm-2.675,1.271a.515.515,0,0,0-.073-.1c-1.791-1.9-1.871-2.742-1.853-2.954,0-.007-.007-.013-.013-.018a.33.33,0,0,1,.009-.036l.007,0a.436.436,0,0,1,.056,0,2.03,2.03,0,0,1,.91.321,12,12,0,0,1,2.181,1.678l.045.047a.433.433,0,0,0,.067.067l.056.053a1.438,1.438,0,0,1,.356.893c0,.458-.19.541-.262.572a.683.683,0,0,1-.284.058A2.137,2.137,0,0,1,118.832,171.377Zm-5.127-.37c.05.075.1.155.161.246a1.173,1.173,0,0,0-.051.153C113.777,171.263,113.74,171.131,113.7,171.008Zm3.8,4.044c-.039-.026-.079-.053-.117-.083-1.257-.9-2.521-2.448-2.6-3.189a.177.177,0,0,1,.14-.25.256.256,0,0,1,.081-.011c.367,0,1.339.5,2.869,1.894a1.777,1.777,0,0,1,.43.6,1.4,1.4,0,0,1,.12.562.613.613,0,0,1-.167.484l-.02.02a.5.5,0,0,1-.075.053h-.04a.954.954,0,0,1-.2.022l-.059,0a.725.725,0,0,1-.237-.05h-.018l-.06-.027h-.015ZM53.795,181.6a16.6,16.6,0,0,1,2.376-.831,18.188,18.188,0,0,1,4.786-.664,13.707,13.707,0,0,1,6.626,1.616V187.2a12.323,12.323,0,0,0-1.911-1.548,9.312,9.312,0,0,0-4.995-1.6h-.5a9.323,9.323,0,0,0-4.995,1.6,12.226,12.226,0,0,0-1.891,1.526l.016-5.258A1.882,1.882,0,0,1,53.795,181.6Zm4.21,34.136a12.034,12.034,0,0,1-2.606-.726,10.3,10.3,0,0,1-4.951-4.227,13.217,13.217,0,0,1-1.645-5.722,26.258,26.258,0,0,1,0-4.466.517.517,0,0,0,.009-.1l.015-.145c.025-.265.048-.407.05-.414a.532.532,0,0,0,0-.06.837.837,0,0,1,.015-.157c.032-.289.065-.556.1-.817a.06.06,0,0,0,0-.02,19.55,19.55,0,0,1,.6-2.832c.162-.533.33-1.043.5-1.516a.461.461,0,0,0,.019-.067c.073-.2.152-.407.236-.605.04-.11.083-.215.125-.316l.005-.013.018-.043A17.13,17.13,0,0,1,53.3,188.77c.188-.216.351-.4.5-.552a11.473,11.473,0,0,1,2.025-1.7A8.185,8.185,0,0,1,60.2,185.1h.524A8.183,8.183,0,0,1,65.1,186.52a11.355,11.355,0,0,1,2.023,1.7c.164.171.334.362.522.582a17.038,17.038,0,0,1,2.79,4.69l.014.035v0l.022.054v0h0c.037.091.076.185.112.283l.185.5.062.17c.149.417.312.906.485,1.453l.007.025.007.023.021.071,0,.007.011.039a20.684,20.684,0,0,1,.521,2.42c.016.108.031.216.045.321.011.074.022.151.032.231.024.189.045.378.062.561a.807.807,0,0,0,.009.1v0c0,.031.007.058.008.086v.035s0,.01,0,.026l0,.014c.01.075.033.249.057.51l.1,0h.283l-.383.032a.137.137,0,0,0,0,.03c.14,1.554.436,6.887-1.643,10.264a10.314,10.314,0,0,1-4.939,4.224,12.87,12.87,0,0,1-4.818.908l-.233,0-.23,0A13.9,13.9,0,0,1,58.005,215.741Zm14.378-19.691c-.029-.107-.058-.208-.085-.3-.1-.344-.212-.682-.32-1,.083-.007.168-.011.254-.011a2.884,2.884,0,0,1,2.416,1.3,3.3,3.3,0,0,1,.5,2.667,1.862,1.862,0,0,1-.934,1.206,2.319,2.319,0,0,1-.322.122,1.892,1.892,0,0,1-.8.042c-.008-.068-.015-.125-.021-.171l0-.034,0-.036-.005-.043c0-.032-.007-.067-.009-.1v-.014c0-.031-.006-.064-.009-.1a21.494,21.494,0,0,0-.52-3.033,1.1,1.1,0,0,1,.845.471,1.108,1.108,0,0,1,.1,1.131.25.25,0,0,0,.2.386h.013a.25.25,0,0,0,.21-.114,1.623,1.623,0,0,0-1.421-2.375l.01,0Zm-25.431,3.971a1.933,1.933,0,0,1-.25-.1,1.856,1.856,0,0,1-.939-1.211,3.287,3.287,0,0,1,.5-2.665,2.882,2.882,0,0,1,2.411-1.3c.089,0,.18,0,.269.013-.127.376-.228.693-.317,1-.028.1-.057.2-.085.3l-.084,0h-.043a1.621,1.621,0,0,0-1.421,2.375.25.25,0,0,0,.42-.272,1.108,1.108,0,0,1,.1-1.131,1.088,1.088,0,0,1,.9-.472,20.421,20.421,0,0,0-.417,2.2.038.038,0,0,1,0,.018c-.033.238-.065.5-.1.817a1.033,1.033,0,0,1-.01.119v.007c0,.028-.007.06-.009.091s-.008.075-.014.121v.008c-.006.042-.013.089-.02.153a1.9,1.9,0,0,1-.3.023H47.5A1.827,1.827,0,0,1,46.952,200.021Zm60.414-89.849a13.836,13.836,0,0,1-7.1,10.527.25.25,0,1,0,.25.432,14.94,14.94,0,0,0,6.331-7.018,11.947,11.947,0,0,0,1-3.923.25.25,0,0,0-.25-.25l.015-.018A.25.25,0,0,0,107.366,110.172Zm-13.069.078a4.279,4.279,0,0,0-2,.6,7.008,7.008,0,0,0-1,.648.251.251,0,0,0,.156.447.248.248,0,0,0,.156-.054,5.428,5.428,0,0,1,2.683-1.145,1.48,1.48,0,0,1,.783.2c.109.066.363.238.35.419-.012.161-.194.334-.477.452a.25.25,0,1,0,.19.462,1.176,1.176,0,0,0,.784-.877c.018-.23-.07-.569-.587-.884a1.954,1.954,0,0,0-1-.273ZM66.712,114.8l-3.134,3.681a.251.251,0,0,0,.192.412h.02a.252.252,0,0,0,.17-.087l3.129-3.684a.248.248,0,1,0-.377-.322Zm-2.1.052-1.673,1.966a.251.251,0,1,0,.382.325l1.671-1.968a.249.249,0,0,0-.38-.322Zm44.445.787a10.166,10.166,0,0,1-2.947,4.383.25.25,0,0,0,.31.392,10.529,10.529,0,0,0,3.112-4.628.25.25,0,0,0-.162-.312.259.259,0,0,0-.062-.013h-.01A.25.25,0,0,0,109.059,115.636Zm-42.545,1.806-.772.909a.25.25,0,0,0,.139.423.242.242,0,0,0,.038,0,.25.25,0,0,0,.2-.1l.772-.907a.25.25,0,0,0-.38-.325ZM2.479,136.972a14.986,14.986,0,0,0,2.682,9.064,12,12,0,0,0,2.82,2.909.25.25,0,0,0,.275-.417,13.853,13.853,0,0,1-5.277-11.546.25.25,0,0,0-.25-.25v-.01A.25.25,0,0,0,2.479,136.972Zm13.928,2.907a2.272,2.272,0,0,0,.944,1.858.25.25,0,1,0,.272-.419,1.771,1.771,0,0,1-.717-1.439.25.25,0,0,0-.5,0ZM.219,142.107a.25.25,0,0,0-.217.277,10.6,10.6,0,0,0,2.323,5.07.25.25,0,0,0,.375-.33,10.217,10.217,0,0,1-2.2-4.8.25.25,0,0,0-.247-.217Zm54.941,3.279a.25.25,0,0,0,.083.278c.25.2,6.341,4.8,9.8,5.679a.25.25,0,0,0,.122-.485c-3.354-.854-9.553-5.544-9.615-5.592a.249.249,0,0,0-.385.119Zm48.414.31a.25.25,0,1,0,.152.477,1.766,1.766,0,0,1,1.568.35.25.25,0,1,0,.315-.387,2.247,2.247,0,0,0-1.448-.517h-.017A2.132,2.132,0,0,0,103.575,145.7ZM57.4,149.567a.25.25,0,0,0-.142.454,21.532,21.532,0,0,0,2.325,1.384.25.25,0,0,0,.227-.442,21.166,21.166,0,0,1-2.265-1.351.249.249,0,0,0-.143-.045Zm57.032,13.589a.5.5,0,0,0-.237.664,3.435,3.435,0,0,1-.764,3.729.5.5,0,0,0,.7.709,4.431,4.431,0,0,0,.964-4.865.5.5,0,0,0-.45-.285h0A.5.5,0,0,0,114.431,163.156Zm-76.743,7.9a.25.25,0,0,0-.052.35,7.772,7.772,0,0,0,2.907,2.163.25.25,0,1,0,.207-.455,7.383,7.383,0,0,1-2.712-2,.249.249,0,0,0-.2-.107h0A.248.248,0,0,0,37.688,171.055Z" transform="translate(124.048 216.919) rotate(180)" fill="#372168"/>
      </g>
      <g id="Chin" transform="translate(55.064 29.167)">
        <rect id="_01_Character_Setup_03_Face_Man_Chin_background" data-name="#01 Character/Setup/#03 Face/Man Chin background" width="17.482" height="2.497" fill="none"/>
        <g id="Group_2" data-name="Group 2" transform="translate(6.952 0.924)">
          <path id="Path-27" data-name="Path" d="M3.123,1a.25.25,0,0,1-.185-.08A1.8,1.8,0,0,0,1.689.5,1.841,1.841,0,0,0,.441.9.25.25,0,1,1,.086.549,2.587,2.587,0,0,1,3.305.574.25.25,0,0,1,3.123,1Z" transform="translate(0 0)" fill="#372168"/>
        </g>
      </g>
      <g id="Cheeks_color:" data-name="Cheeks color:" transform="translate(54.564 21.497)">
        <rect id="_01_Character_Setup_03_Face_Cheek_Ñheek_01_background" data-name="#01 Character/Setup/#03 Face/Cheek/Ñheek#01 background" width="18.481" height="5.245" transform="translate(0 0.178)" fill="none"/>
        <path id="Cheeks_color:-2" data-name="Cheeks color:" d="M13.486,2.5a2.5,2.5,0,1,1,2.5,2.5A2.5,2.5,0,0,1,13.486,2.5ZM0,2.5a2.5,2.5,0,1,1,2.5,2.5A2.5,2.5,0,0,1,0,2.5Z" fill="#ff1300" opacity="0.15" style="mix-blend-mode: multiply;isolation: isolate"/>
      </g>
      <g id="_3_hairdo" transform="translate(48.281 0)">
        <g id="Hair_color:" data-name="Hair color:" transform="translate(0.497 0.497)">
          <path id="Hair_color:-2" data-name="Hair color:" d="M.679,16.293c2.15,6.868,2.627,7.915,2.627,7.915h.012a7.975,7.975,0,0,1-.185-1.359c0-.2,0-.932-.017-1.9-.015-1.079-.065-3.367-.11-5.7a2.667,2.667,0,0,1,2.522-2.7,5.135,5.135,0,0,0,2.807-1.2.3.3,0,0,1,.38,0A2.652,2.652,0,0,0,12,11.268a.3.3,0,0,1,.4.05c4.5,5.245,9.45,4.071,12.385,2.595A1.384,1.384,0,0,1,26.8,15.141v7.323a8.049,8.049,0,0,1-.34,2.293c.2-.564.859-2.45,2.587-8.047,1.8-5.847-.4-7.527-.964-7.852a.287.287,0,0,1-.145-.21c-.185-1.3-1.9-10.764-12.59-7.135a1.109,1.109,0,0,1-.919-.095C12.856.468,7.322-2.294,5.094,4.06a.457.457,0,0,1-.452.307c-.749-.032-2.522.2-2.48,3.147a.41.41,0,0,1-.19.35C1.246,8.338-1.162,10.411.679,16.293Z" transform="translate(0 0)" fill="#e98a9b"/>
          <path id="Hair_color:-3" data-name="Hair color:" d="M.679,16.293c2.15,6.868,2.627,7.915,2.627,7.915h.012a7.975,7.975,0,0,1-.185-1.359c0-.2,0-.932-.017-1.9-.015-1.079-.065-3.367-.11-5.7a2.667,2.667,0,0,1,2.522-2.7,5.135,5.135,0,0,0,2.807-1.2.3.3,0,0,1,.38,0A2.652,2.652,0,0,0,12,11.268a.3.3,0,0,1,.4.05c4.5,5.245,9.45,4.071,12.385,2.595A1.384,1.384,0,0,1,26.8,15.141v7.323a8.049,8.049,0,0,1-.34,2.293c.2-.564.859-2.45,2.587-8.047,1.8-5.847-.4-7.527-.964-7.852a.287.287,0,0,1-.145-.21c-.185-1.3-1.9-10.764-12.59-7.135a1.109,1.109,0,0,1-.919-.095C12.856.468,7.322-2.294,5.094,4.06a.457.457,0,0,1-.452.307c-.749-.032-2.522.2-2.48,3.147a.41.41,0,0,1-.19.35C1.246,8.338-1.162,10.411.679,16.293Z" transform="translate(0 0)" fill="rgba(255,255,255,0.16)"/>
        </g>
        <path id="Combined_Shape-3" data-name="Combined Shape" d="M3.319.327C3.115.886,2.453,2.79.722,8.4A10.8,10.8,0,0,0,.283,14.6a3.816,3.816,0,0,0,1.546,2.176,12.78,12.78,0,0,0,.97,3.2,10.222,10.222,0,0,0,1.278,2.113A7.9,7.9,0,0,0,6.1,23.913a8.157,8.157,0,0,0,4.339,1.154,14.528,14.528,0,0,0,4.614-.849.6.6,0,0,1,.5.05,11.906,11.906,0,0,0,1.937.935,8.063,8.063,0,0,0,2.795.552,5.287,5.287,0,0,0,1.8-.3,6.119,6.119,0,0,0,3.529-4.063c.048,0,.1,0,.143,0a2.773,2.773,0,0,0,1.88-.733,3.831,3.831,0,0,0,.947-2.877,4.719,4.719,0,0,0,1.776-2.412,7.561,7.561,0,0,0,.387-2.66,14.109,14.109,0,0,0-.7-3.9C27.969,2.177,27.452.959,27.4.842A.5.5,0,0,0,26.946.55h0a.51.51,0,0,0-.4.187.5.5,0,0,0-.1.422,7.582,7.582,0,0,1,.172,1.249c0,.25,0,.914.018,1.906,0,.467.016,1.17.035,1.984V6.3c.008.354.017.72.025,1.109.012.63.024,1.285.038,1.979l.012.621a2.172,2.172,0,0,1-2.055,2.2,5.576,5.576,0,0,0-2.967,1.209,2.767,2.767,0,0,0-1.664-.561,3.728,3.728,0,0,0-1.95.624,11.9,11.9,0,0,0-3.952-3.045,9.139,9.139,0,0,0-3.813-.828,10.489,10.489,0,0,0-2.847.408,12.591,12.591,0,0,0-1.845.684l-.036.013c-.022.009-.243.1-.55.253a.888.888,0,0,1-.7-.1.861.861,0,0,1-.417-.749V2.795a7.525,7.525,0,0,1,.32-2.15A.5.5,0,0,0,3.319.327ZM21.726,14.46a.8.8,0,0,0,.5-.18,4.615,4.615,0,0,1,2.525-1.086,3.169,3.169,0,0,0,3-3.2c-.018-.9-.035-1.781-.05-2.6-.027-1.272-.046-2.231-.055-2.852.412,1.256.9,2.793,1.458,4.568a13.4,13.4,0,0,1,.656,3.493,6.737,6.737,0,0,1-.294,2.338,3.745,3.745,0,0,1-1.453,2.029.909.909,0,0,0-.417.779,2.928,2.928,0,0,1-.644,2.193,1.745,1.745,0,0,1-1.119.45,4.277,4.277,0,0,1-1.626-.442.5.5,0,0,0-.41.912,7.137,7.137,0,0,0,.842.318,5.161,5.161,0,0,1-2.882,3.343,4.353,4.353,0,0,1-1.476.245,8.7,8.7,0,0,1-4.2-1.348,1.6,1.6,0,0,0-1.339-.14,13.487,13.487,0,0,1-4.286.8,7.175,7.175,0,0,1-3.82-1.006C3.6,21.2,2.915,17.3,2.808,16.538a.778.778,0,0,0-.392-.575,2.826,2.826,0,0,1-1.166-1.651,6.3,6.3,0,0,1-.234-2.181,14.214,14.214,0,0,1,.665-3.439c.5-1.633.921-2.963,1.271-4.066v5.494a1.884,1.884,0,0,0,.859,1.583,4.524,4.524,0,0,0-.387.31.5.5,0,1,0,.669.749,6.42,6.42,0,0,1,1.329-.851A1.88,1.88,0,0,0,5.7,11.8a10.375,10.375,0,0,1,4.656-1.2c2.63,0,5.027,1.237,7.125,3.676a.8.8,0,0,0,1.067.13,2.689,2.689,0,0,1,1.5-.545,1.862,1.862,0,0,1,1.189.44.807.807,0,0,0,.484.162ZM9.3,12.253a.25.25,0,0,0,.29.407,1.626,1.626,0,0,1,1.928.147.25.25,0,0,0,.312-.39,2.161,2.161,0,0,0-1.379-.51h-.012A2.055,2.055,0,0,0,9.3,12.253Zm14.65,2.26a.25.25,0,1,0,.29.4,1.184,1.184,0,0,1,1.391.112.25.25,0,0,0,.315-.39,1.691,1.691,0,0,0-1.084-.4h-.006A1.643,1.643,0,0,0,23.949,14.513ZM11.833,17.475A4.046,4.046,0,0,0,11,17.57a.255.255,0,0,0,.1.5,1.971,1.971,0,0,1,2.248.7.4.4,0,0,0,.535.067,1.066,1.066,0,0,1,1.343-.052.25.25,0,1,0,.315-.39,1.556,1.556,0,0,0-1.873-.017,2.262,2.262,0,0,0-1.807-.9ZM6.371,19.5a.249.249,0,0,0-.235.335,2.11,2.11,0,0,0,2.083,1.448.25.25,0,0,0-.037-.5,1.628,1.628,0,0,1-1.576-1.121.25.25,0,0,0-.234-.162Zm15.834,2.34a1.634,1.634,0,0,1-1.691.936.25.25,0,0,0-.05.5,2.108,2.108,0,0,0,2.205-1.249.25.25,0,0,0-.142-.322.231.231,0,0,0-.09-.022A.249.249,0,0,0,22.205,21.841Z" transform="translate(30.748 25.755) rotate(180)" fill="#372168"/>
      </g>
      <g id="Emotions" transform="translate(55.064 15.556)">
        <rect id="_01_Character_Setup_01_Emotions_smile_background" data-name="#01 Character/Setup/#01 Emotions/smile background" width="17.482" height="13.986" fill="none"/>
        <g id="Face">
          <g id="Mouth" transform="translate(0 8.991)">
            <rect id="_01_Character_Setup_03_Face_Mouth_smile_background" data-name="#01 Character/Setup/#03 Face/Mouth/smile background" width="17.482" height="4.995" fill="none"/>
            <g id="Group_2-2" data-name="Group 2" transform="translate(5.37 0.626)">
              <path id="Path-28" data-name="Path" d="M3.274,2.1A4.031,4.031,0,0,1,.1.709.437.437,0,1,1,.779.165a3.22,3.22,0,0,0,2.5,1.056A3.22,3.22,0,0,0,5.774.165a.437.437,0,0,1,.684.544A4.1,4.1,0,0,1,3.274,2.1Z" transform="translate(0 0)" fill="#372168"/>
            </g>
          </g>
          <g id="Nose" transform="translate(0 6.244)">
            <rect id="_01_Character_Setup_03_Face_Nose_background" data-name="#01 Character/Setup/#03 Face/Nose background" width="17.482" height="1.998" fill="none"/>
            <g id="_Nose" data-name="ðŸ‘ƒNose" transform="translate(7.298 0.537)">
              <path id="Path-29" data-name="Path" d="M1.436,1.407A1.628,1.628,0,0,1,.07.7.437.437,0,1,1,.8.223a.794.794,0,0,0,.637.31A.794.794,0,0,0,2.073.211a.438.438,0,1,1,.749.455,1.613,1.613,0,0,1-1.386.742Z" transform="translate(0 0)" fill="#372168"/>
            </g>
          </g>
          <g id="Eyes" transform="translate(0 2.997)">
            <rect id="_01_Character_Setup_03_Face_Eyes_eyes-8_background" data-name="#01 Character/Setup/#03 Face/Eyes/eyes-8 background" width="17.482" height="2.497" fill="none"/>
            <g id="silly_eyes" transform="translate(2.872 0.462)">
              <path id="Path-30" data-name="Path" d="M.834,1.723A.862.862,0,0,0,.834,0,.862.862,0,0,0,.834,1.723Z" transform="translate(0)" fill="#372168"/>
              <path id="Path-31" data-name="Path" d="M.833,1.723A.862.862,0,0,0,.833,0,.862.862,0,0,0,.833,1.723Z" transform="translate(10.233)" fill="#372168"/>
            </g>
          </g>
          <g id="Eyebrows">
            <rect id="_01_Character_Setup_03_Face_Eyebrow_simple_background" data-name="#01 Character/Setup/#03 Face/Eyebrow/simple background" width="17.482" height="2.997" fill="none"/>
            <g id="smile_eyebrows_" transform="translate(1.015 0.687)">
              <path id="Path-32" data-name="Path" d="M4.954,1.51a.5.5,0,0,1-.23-.055,4.793,4.793,0,0,0-4,0A.5.5,0,0,1,.271.566a5.744,5.744,0,0,1,4.92,0,.5.5,0,0,1-.227.944Z" transform="translate(0 0.001)" fill="#372168"/>
              <path id="Path-33" data-name="Path" d="M4.963,1.511a.5.5,0,0,1-.227-.055,4.791,4.791,0,0,0-4,0A.5.5,0,1,1,.285.567a5.734,5.734,0,0,1,4.92,0,.5.5,0,0,1-.242.944Z" transform="translate(10.128 0)" fill="#372168"/>
            </g>
          </g>
        </g>
      </g>
    </g>
    <g id="_02_Elements_04_Icons_check_list" data-name="#02 Elements/#04 Icons/check_list" transform="translate(-18245.41 13981.188)">
      <g id="check_list">
        <path id="Path-34" data-name="Path" d="M0,20.56V4.387A4.389,4.389,0,0,1,4.387,0h34.5A3.032,3.032,0,0,1,40.97.828L50.186,9.54a3.034,3.034,0,0,1,.948,2.2V56.8a4.385,4.385,0,0,1-4.385,4.385H4.387A4.389,4.389,0,0,1,0,56.794V27.6" transform="translate(0.393 0.393)" fill="#fff"/>
        <path id="Path-35" data-name="Path" d="M47.142,61.975H4.781A4.787,4.787,0,0,1,0,57.194v-29.2a.393.393,0,1,1,.787,0v29.2a4,4,0,0,0,3.994,3.994H47.142A4,4,0,0,0,51.134,57.2V12.141a2.646,2.646,0,0,0-.826-1.916l-9.214-8.71A2.623,2.623,0,0,0,39.282.793H4.781A4,4,0,0,0,.787,4.787V20.953a.393.393,0,1,1-.787,0V4.781A4.787,4.787,0,0,1,4.781,0h34.5a3.4,3.4,0,0,1,2.351.937l9.216,8.71a3.445,3.445,0,0,1,1.072,2.489V57.19a4.785,4.785,0,0,1-4.779,4.785Z" transform="translate(0 0)" fill="#372168"/>
        <g id="Path-36" data-name="Path" transform="translate(40.488 0.839)">
          <path id="Path-37" data-name="Path" d="M9.928,9.99H3.268A3.268,3.268,0,0,1,0,6.722V.353A.344.344,0,0,1,.59.1l9.64,9.123a.443.443,0,0,1-.3.763Z" transform="translate(0 0)" fill="#bec5d8"/>
          <path id="Path-38" data-name="Path" d="M9.928,9.99H3.268A3.268,3.268,0,0,1,0,6.722V.353A.344.344,0,0,1,.59.1l9.64,9.123a.443.443,0,0,1-.3.763Z" transform="translate(0 0)" fill="rgba(255,255,255,0.16)"/>
        </g>
        <path id="Shape-3" data-name="Shape" d="M10.321,10.768H3.661A3.665,3.665,0,0,1,0,7.107V.738A.736.736,0,0,1,1.243.2L10.9,9.326a.834.834,0,0,1-.571,1.442Z" transform="translate(40.095 0.454)" fill="#372168"/>
        <path id="Path-39" data-name="Path" d="M.2,2.845a.2.2,0,0,1-.2-.2A2.652,2.652,0,0,1,2.648,0a.2.2,0,1,1,0,.393A2.257,2.257,0,0,0,.393,2.648.2.2,0,0,1,.2,2.845Z" transform="translate(2.569 2.329)" fill="#372168"/>
        <path id="Path-40" data-name="Path" d="M1.8,1.625a.2.2,0,0,1-.12-.041L.078.354A.2.2,0,1,1,.316.041l1.6,1.23a.2.2,0,0,1-.12.354Z" transform="translate(29.355 42.907)" fill="#372168"/>
        <path id="Path-41" data-name="Path" d="M3.411,2.862a.2.2,0,0,1-.12-.041L.086.36A.2.2,0,1,1,.326.049l3.2,2.459a.2.2,0,0,1-.12.354Z" transform="translate(29.349 41.362)" fill="#372168"/>
        <path id="Path-42" data-name="Path" d="M1.072,1.066a.2.2,0,0,1-.12-.041L.071.348A.2.2,0,0,1,.309.035l.883.679a.2.2,0,0,1-.12.352Z" transform="translate(31.688 41.588)" fill="#372168"/>
        <path id="Path-43" data-name="Path" d="M.2,2.845a.2.2,0,1,1,0-.393A2.257,2.257,0,0,0,2.451.2a.2.2,0,1,1,.393,0A2.65,2.65,0,0,1,.2,2.845Z" transform="translate(45.476 56.031)" fill="#372168"/>
        <g id="Rectangle" transform="translate(9.402 12.853)">
          <rect id="Rectangle-2" data-name="Rectangle" width="9.928" height="9.928" rx="4.964" fill="#8ab99e"/>
          <rect id="Rectangle-3" data-name="Rectangle" width="9.928" height="9.928" rx="4.964" fill="rgba(255,255,255,0.09)"/>
        </g>
        <path id="Shape-4" data-name="Shape" d="M2.558,10.715A2.558,2.558,0,0,1,0,8.157v-5.6A2.558,2.558,0,0,1,2.558,0h5.6a2.558,2.558,0,0,1,2.558,2.558v5.6a2.558,2.558,0,0,1-2.558,2.558Z" transform="translate(9.009 12.458)" fill="#372168"/>
        <path id="Path-44" data-name="Path" d="M1.543,5.244h0A.393.393,0,0,1,1.2,5.031L.044,2.808a.394.394,0,0,1,.7-.362L1.557,4.02,3.7.2a.4.4,0,1,1,.687.393l-2.5,4.458A.393.393,0,0,1,1.543,5.244Z" transform="translate(12.451 15.194)" fill="#fff"/>
        <g id="Rectangle-4" data-name="Rectangle" transform="translate(9.402 26.535)">
          <rect id="Rectangle-5" data-name="Rectangle" width="9.928" height="9.928" rx="4.964" fill="#8ab99e"/>
          <rect id="Rectangle-6" data-name="Rectangle" width="9.928" height="9.928" rx="4.964" fill="rgba(255,255,255,0.09)"/>
        </g>
        <path id="Shape-5" data-name="Shape" d="M2.558,10.713A2.558,2.558,0,0,1,0,8.155v-5.6A2.558,2.558,0,0,1,2.558,0h5.6a2.558,2.558,0,0,1,2.558,2.558v5.6a2.558,2.558,0,0,1-2.558,2.558Z" transform="translate(9.009 26.141)" fill="#372168"/>
        <path id="Path-45" data-name="Path" d="M1.535,5.249h0a.393.393,0,0,1-.342-.214L.044,2.808a.394.394,0,1,1,.7-.362L1.557,4.02,3.7.2a.4.4,0,0,1,.687.393l-2.5,4.458A.393.393,0,0,1,1.535,5.249Z" transform="translate(12.459 28.872)" fill="#fff"/>
        <g id="Rectangle-7" data-name="Rectangle" transform="translate(9.402 40.217)">
          <rect id="Rectangle-8" data-name="Rectangle" width="9.928" height="9.928" rx="4.964" fill="#8ab99e"/>
          <rect id="Rectangle-9" data-name="Rectangle" width="9.928" height="9.928" rx="4.964" fill="rgba(255,255,255,0.09)"/>
        </g>
        <path id="Shape-6" data-name="Shape" d="M2.558,10.713A2.558,2.558,0,0,1,0,8.155v-5.6A2.558,2.558,0,0,1,2.558,0h5.6a2.558,2.558,0,0,1,2.558,2.558v5.6a2.558,2.558,0,0,1-2.558,2.558Z" transform="translate(9.009 39.823)" fill="#372168"/>
        <path id="Path-46" data-name="Path" d="M1.535,5.246h0a.393.393,0,0,1-.342-.212L.044,2.8a.394.394,0,0,1,.7-.36l.813,1.574L3.7.2a.4.4,0,1,1,.687.393l-2.5,4.46A.393.393,0,0,1,1.535,5.246Z" transform="translate(12.459 42.558)" fill="#fff"/>
        <path id="Path-47" data-name="Path" d="M4.458,0,0,4.551,1.263,5.786A3.185,3.185,0,1,0,5.721,1.236Z" transform="translate(52.269 42.977)" fill="#fff"/>
        <path id="Shape-7" data-name="Shape" d="M3.909,7.4a3.459,3.459,0,0,1-2.436-.984L0,4.974,4.871,0,6.345,1.442a3.48,3.48,0,0,1-2.4,5.965Z" transform="translate(51.852 42.57)" fill="#372168"/>
        <rect id="Rectangle-10" data-name="Rectangle" width="6.371" height="0.649" transform="translate(51.81 47.047) rotate(-45.6)" fill="#fff"/>
        <path id="Shape-8" data-name="Shape" d="M0,4.972,4.869,0l.887.868L.883,5.841Z" transform="translate(51.39 42.105)" fill="#372168"/>
        <g id="Path-48" data-name="Path" transform="translate(32.442 23.552)">
          <path id="Path-49" data-name="Path" d="M18.418,22.6.013,4.566a.047.047,0,0,1,0-.065L4.41.014a.045.045,0,0,1,.065,0L22.881,18.045" transform="translate(0)" fill="#ffcb6d"/>
          <path id="Path-50" data-name="Path" d="M18.418,22.6.013,4.566a.047.047,0,0,1,0-.065L4.41.014a.045.045,0,0,1,.065,0L22.881,18.045" transform="translate(0)" fill="rgba(255,255,255,0.05)"/>
        </g>
        <path id="Shape-9" data-name="Shape" d="M18.707,23.19a.3.3,0,0,1-.2-.085L.1,5.072A.354.354,0,0,1,0,4.82a.334.334,0,0,1,.1-.236L4.494.1A.34.34,0,0,1,4.73,0a.332.332,0,0,1,.25.1l18.4,18.028a.3.3,0,1,1-.413.423L4.738.695.693,4.826,18.921,22.685a.3.3,0,0,1-.2.508Z" transform="translate(32.154 23.257)" fill="#372168"/>
        <path id="Path-51" data-name="Path" d="M5.686,1.18,2.229,0,0,2.274,1.257,5.708a.031.031,0,0,0,.051.01L5.7,1.236a.03.03,0,0,0-.012-.055Z" transform="translate(31.151 22.331)" fill="#fff"/>
        <path id="Shape-10" data-name="Shape" d="M1.558,6.345a.324.324,0,0,1-.238-.2L0,2.542,2.489,0,6.123,1.247a.327.327,0,0,1,.128.535L1.859,6.264a.328.328,0,0,1-.232.081l-.034,0Z" transform="translate(30.81 22.01)" fill="#372168"/>
        <g id="Path-52" data-name="Path" transform="translate(30.02 21.262)">
          <path id="Path-53" data-name="Path" d="M3.36,1.068.285.012A.214.214,0,0,0,.014.289L1.131,3.343Z" transform="translate(0 0)" fill="#f66"/>
          <path id="Path-54" data-name="Path" d="M3.36,1.068.285.012A.214.214,0,0,0,.014.289L1.131,3.343Z" transform="translate(0 0)" fill="rgba(255,255,255,0.09)"/>
        </g>
        <path id="Shape-11" data-name="Shape" d="M.031.686A.511.511,0,0,1,.676.027L4.192,1.235,1.31,4.178Z" transform="translate(29.725 20.969)" fill="#372168"/>
        <g id="Path-55" data-name="Path" transform="translate(50.866 41.602)">
          <path id="Path-56" data-name="Path" d="M4.458,0,0,4.551l.907.887.033.035.464.454L5.863,1.377,5.4.923,5.363.887,4.458,0Z" fill="#f66"/>
          <path id="Path-57" data-name="Path" d="M4.458,0,0,4.551l.907.887.033.035.464.454L5.863,1.377,5.4.923,5.363.887,4.458,0Z" fill="rgba(255,255,255,0.16)"/>
        </g>
        <path id="Shape-12" data-name="Shape" d="M0,4.974,4.871,0,6.7,1.79,1.826,6.764Z" transform="translate(50.447 41.183)" fill="#372168"/>
        <path id="Path-58" data-name="Path" d="M.306,1.541H.18a.2.2,0,1,1,.035-.393A.944.944,0,0,0,1.25.2a.2.2,0,0,1,.2-.2h0a.2.2,0,0,1,.2.2A1.336,1.336,0,0,1,.306,1.548Z" transform="translate(56.136 46.892)" fill="#372168"/>
        <path id="Path-59" data-name="Path" d="M15.714,15.6a.2.2,0,0,1-.138-.055L.059.338A.2.2,0,0,1,.335.056l15.517,15.2a.2.2,0,0,1-.138.336Z" transform="translate(33.842 26.345)" fill="#372168"/>
        <path id="Path-60" data-name="Path" d="M1.917,2.079a.2.2,0,0,1-.138-.057L.048.326A.2.2,0,0,1,.324.046l1.731,1.7a.2.2,0,0,1-.138.336Z" transform="translate(50.478 42.643)" fill="#372168"/>
        <path id="Path-61" data-name="Path" d="M15.246,15.149a.2.2,0,0,1-.138-.057L.057.336A.2.2,0,1,1,.337.058L15.388,14.8a.2.2,0,0,1-.142.344Z" transform="translate(37.253 26.67)" fill="#372168"/>
        <path id="Path-62" data-name="Path" d="M.2.948A.2.2,0,0,1,.105.576L1.156.029a.2.2,0,1,1,.181.348L.288.924A.2.2,0,0,1,.2.948Z" transform="translate(34.585 19.443)" fill="#372168"/>
        <path id="Path-63" data-name="Path" d="M.2,1.525a.2.2,0,0,1-.167-.3L.737.093A.2.2,0,0,1,1.072.3L.364,1.433A.2.2,0,0,1,.2,1.525Z" transform="translate(33.406 18.079)" fill="#372168"/>
        <path id="Path-64" data-name="Path" d="M.244,1.666a.2.2,0,0,1-.2-.2L0,.2A.2.2,0,0,1,.394.19L.441,1.455a.2.2,0,0,1-.2.2Z" transform="translate(32.05 17.362)" fill="#372168"/>
      </g>
    </g>
  </g>
</svg>
